<?xml version="1.0" encoding="iso-8859-1"?>
<!-- Uploaded to: SVG Repo, www.svgrepo.com, Generator: SVG Repo Mixer Tools -->
<svg height="800px" width="800px" version="1.1" id="Layer_1" xmlns="http://www.w3.org/2000/svg" xmlns:xlink="http://www.w3.org/1999/xlink" 
	 viewBox="0 0 258.644 258.644" xml:space="preserve">
<g>
	<g>
		<path style="fill:#4EFFBB;" d="M251.405,24.175H105.132c-4.001,0-7.236,3.306-7.236,7.385v64.984h-3.309
			c-4.001,0-7.236,3.306-7.236,7.383v4.445H47.357c-2.764-7.017-9.454-11.976-17.306-11.976c-10.289,0-18.653,8.558-18.653,19.103
			c0,10.542,8.364,19.103,18.653,19.103c7.636,0,14.18-4.701,17.09-11.425h19.96c-16.545,12.159-27.343,31.959-27.343,54.368
			c0,36.955,29.378,67.042,65.484,67.042c32.398,0,59.302-24.245,64.503-55.912h81.663c4,0,7.236-3.306,7.236-7.419V31.56
			C258.641,27.481,255.405,24.175,251.405,24.175z"/>
		<g id="XMLID_9_">
			<g>
				<path style="fill:#302C58;" d="M232.772,28.825v134.926h-73.555c-1.091-20.866-11.599-39.195-27.233-50.694h21.523
					c2.91,6.722,9.454,11.425,17.09,11.425c10.289,0,18.653-8.56,18.653-19.103s-8.364-19.103-18.653-19.103
					c-7.855,0-14.543,4.959-17.306,11.976h-40.503v-4.445c0-4.076-3.236-7.383-7.236-7.383h-4.616V28.825H232.772z"/>
				<path style="fill:#222051;" d="M37.663,175.438h-0.11c-4.703,0-8.167,4.507-6.969,9.103c0.787,3.022,1.777,5.96,2.952,8.799
					c1.945,4.698,8.083,5.786,11.647,2.184l0.107-0.107c2.044-2.064,2.66-5.164,1.549-7.858c-0.891-2.159-1.647-4.391-2.252-6.685
					C43.744,177.684,40.933,175.438,37.663,175.438z"/>
				<path style="fill:#222051;" d="M240.008,14.057H93.735c-4.001,0-7.236,3.306-7.236,7.383v64.984H83.19
					c-4.001,0-7.236,3.306-7.236,7.383v4.445H35.96c-2.764-7.017-9.454-11.976-17.306-11.976C8.364,86.277,0,94.837,0,105.38
					s8.364,19.103,18.653,19.103c7.636,0,14.18-4.703,17.09-11.425h19.96c-13.005,9.558-22.443,23.843-25.889,40.401
					c-0.947,4.554,2.474,8.856,7.082,8.856l0,0c3.458,0,6.354-2.496,7.073-5.912c3.703-17.534,16.03-31.799,32.204-37.908
					c0.801,3.196,3.598,5.62,7.017,5.62h22.361c3.272,0,5.963-2.241,6.871-5.291c18.979,7.641,32.468,26.522,32.468,48.599
					c0,28.799-22.907,52.237-51.048,52.237c-12.35,0-23.654-4.537-32.474-12.049c-2.969-2.527-7.295-2.51-10.042,0.261l-0.003,0.003
					c-3.056,3.087-2.749,8.102,0.543,10.93c11.369,9.769,26.008,15.659,41.979,15.659c32.395,0,59.302-24.245,64.5-55.912h81.663
					c4,0,7.236-3.306,7.236-7.419V21.366C247.241,17.329,244.003,14.057,240.008,14.057z M18.653,109.715
					c-2.328,0-4.217-1.948-4.217-4.335s1.892-4.299,4.217-4.299s4.217,1.912,4.217,4.299
					C22.87,107.767,20.978,109.715,18.653,109.715z M98.315,109.31h-7.928v-8.119h7.928V109.31z M232.772,163.751h-73.555
					c-1.091-20.866-11.599-39.195-27.233-50.694h21.523c2.91,6.722,9.454,11.425,17.09,11.425c10.289,0,18.653-8.56,18.653-19.103
					s-8.364-19.103-18.653-19.103c-7.855,0-14.543,4.959-17.306,11.976h-40.503v-4.445c0-4.076-3.236-7.383-7.236-7.383h-4.616
					V28.825h131.84v134.926H232.772z M166.379,105.38c0-2.387,1.892-4.299,4.217-4.299c2.328,0,4.217,1.912,4.217,4.299
					c0,2.387-1.892,4.335-4.217,4.335C168.271,109.715,166.379,107.767,166.379,105.38z"/>
			</g>
		</g>
	</g>
</g>
</svg>